<mxfile host="app.diagrams.net" modified="2023-07-09T09:09:44.928Z" agent="Mozilla/5.0 (Macintosh; Intel Mac OS X 10_15_7) AppleWebKit/537.36 (KHTML, like Gecko) Chrome/114.0.0.0 Safari/537.36" etag="-co3nkOp7oCqYeavn-ba" version="21.5.2" type="github">
  <diagram name="Page-1" id="sxwb1G97yiRCFdO_E4Wa">
    <mxGraphModel dx="2269" dy="1474" grid="1" gridSize="10" guides="1" tooltips="1" connect="1" arrows="1" fold="1" page="1" pageScale="1" pageWidth="827" pageHeight="1169" math="0" shadow="0">
      <root>
        <mxCell id="0" />
        <mxCell id="1" parent="0" />
        <mxCell id="lilgsmnHfV8MRSJmeCpG-7" value="&lt;font style=&quot;font-size: 24px;&quot;&gt;Laundry Ku App&lt;/font&gt;" style="shape=rect;html=1;verticalAlign=top;fontStyle=1;whiteSpace=wrap;align=center;movable=0;resizable=0;rotatable=0;deletable=0;editable=0;locked=1;connectable=0;" parent="1" vertex="1">
          <mxGeometry x="147" y="60" width="534" height="1170" as="geometry" />
        </mxCell>
        <mxCell id="vSBK6vUm9z5rZ2sJiHHF-12" style="rounded=0;orthogonalLoop=1;jettySize=auto;html=1;exitX=0;exitY=0.3333333333333333;exitDx=0;exitDy=0;exitPerimeter=0;entryX=1;entryY=0.5;entryDx=0;entryDy=0;" edge="1" parent="1" source="lilgsmnHfV8MRSJmeCpG-2" target="lilgsmnHfV8MRSJmeCpG-8">
          <mxGeometry relative="1" as="geometry" />
        </mxCell>
        <mxCell id="vSBK6vUm9z5rZ2sJiHHF-13" style="rounded=0;orthogonalLoop=1;jettySize=auto;html=1;exitX=0;exitY=0.3333333333333333;exitDx=0;exitDy=0;exitPerimeter=0;entryX=1;entryY=0.5;entryDx=0;entryDy=0;" edge="1" parent="1" source="lilgsmnHfV8MRSJmeCpG-2" target="lilgsmnHfV8MRSJmeCpG-22">
          <mxGeometry relative="1" as="geometry" />
        </mxCell>
        <mxCell id="vSBK6vUm9z5rZ2sJiHHF-14" style="rounded=0;orthogonalLoop=1;jettySize=auto;html=1;exitX=0;exitY=0.3333333333333333;exitDx=0;exitDy=0;exitPerimeter=0;entryX=1;entryY=0.5;entryDx=0;entryDy=0;" edge="1" parent="1" source="lilgsmnHfV8MRSJmeCpG-2" target="lilgsmnHfV8MRSJmeCpG-19">
          <mxGeometry relative="1" as="geometry" />
        </mxCell>
        <mxCell id="vSBK6vUm9z5rZ2sJiHHF-15" style="rounded=0;orthogonalLoop=1;jettySize=auto;html=1;exitX=0;exitY=0.3333333333333333;exitDx=0;exitDy=0;exitPerimeter=0;entryX=1;entryY=0.5;entryDx=0;entryDy=0;" edge="1" parent="1" source="lilgsmnHfV8MRSJmeCpG-2" target="lilgsmnHfV8MRSJmeCpG-21">
          <mxGeometry relative="1" as="geometry" />
        </mxCell>
        <mxCell id="vSBK6vUm9z5rZ2sJiHHF-16" style="rounded=0;orthogonalLoop=1;jettySize=auto;html=1;exitX=0;exitY=0.3333333333333333;exitDx=0;exitDy=0;exitPerimeter=0;entryX=1;entryY=0.5;entryDx=0;entryDy=0;" edge="1" parent="1" source="lilgsmnHfV8MRSJmeCpG-2" target="lilgsmnHfV8MRSJmeCpG-16">
          <mxGeometry relative="1" as="geometry" />
        </mxCell>
        <mxCell id="vSBK6vUm9z5rZ2sJiHHF-17" style="rounded=0;orthogonalLoop=1;jettySize=auto;html=1;exitX=0;exitY=0.3333333333333333;exitDx=0;exitDy=0;exitPerimeter=0;entryX=1;entryY=0.5;entryDx=0;entryDy=0;" edge="1" parent="1" source="lilgsmnHfV8MRSJmeCpG-2" target="lilgsmnHfV8MRSJmeCpG-14">
          <mxGeometry relative="1" as="geometry" />
        </mxCell>
        <mxCell id="vSBK6vUm9z5rZ2sJiHHF-18" style="rounded=0;orthogonalLoop=1;jettySize=auto;html=1;exitX=0;exitY=0.3333333333333333;exitDx=0;exitDy=0;exitPerimeter=0;entryX=1;entryY=0.5;entryDx=0;entryDy=0;" edge="1" parent="1" source="lilgsmnHfV8MRSJmeCpG-2" target="lilgsmnHfV8MRSJmeCpG-17">
          <mxGeometry relative="1" as="geometry" />
        </mxCell>
        <mxCell id="vSBK6vUm9z5rZ2sJiHHF-19" style="rounded=0;orthogonalLoop=1;jettySize=auto;html=1;exitX=0;exitY=0.3333333333333333;exitDx=0;exitDy=0;exitPerimeter=0;entryX=1;entryY=0.5;entryDx=0;entryDy=0;" edge="1" parent="1" source="lilgsmnHfV8MRSJmeCpG-2" target="lilgsmnHfV8MRSJmeCpG-20">
          <mxGeometry relative="1" as="geometry" />
        </mxCell>
        <mxCell id="vSBK6vUm9z5rZ2sJiHHF-20" style="rounded=0;orthogonalLoop=1;jettySize=auto;html=1;exitX=0;exitY=0.3333333333333333;exitDx=0;exitDy=0;exitPerimeter=0;entryX=1;entryY=0.5;entryDx=0;entryDy=0;" edge="1" parent="1" source="lilgsmnHfV8MRSJmeCpG-2" target="vSBK6vUm9z5rZ2sJiHHF-1">
          <mxGeometry relative="1" as="geometry" />
        </mxCell>
        <mxCell id="lilgsmnHfV8MRSJmeCpG-2" value="Admin" style="shape=umlActor;html=1;verticalLabelPosition=bottom;verticalAlign=top;align=center;" parent="1" vertex="1">
          <mxGeometry x="750" y="570" width="85" height="170" as="geometry" />
        </mxCell>
        <mxCell id="lilgsmnHfV8MRSJmeCpG-8" value="Login" style="ellipse;whiteSpace=wrap;html=1;fontSize=20;" parent="1" vertex="1">
          <mxGeometry x="337" y="150" width="153.6" height="80" as="geometry" />
        </mxCell>
        <mxCell id="lilgsmnHfV8MRSJmeCpG-14" value="Add Admin" style="ellipse;whiteSpace=wrap;html=1;fontSize=20;" parent="1" vertex="1">
          <mxGeometry x="337" y="730" width="153.6" height="80" as="geometry" />
        </mxCell>
        <mxCell id="lilgsmnHfV8MRSJmeCpG-16" value="Create Store" style="ellipse;whiteSpace=wrap;html=1;fontSize=20;" parent="1" vertex="1">
          <mxGeometry x="337" y="610" width="153.6" height="80" as="geometry" />
        </mxCell>
        <mxCell id="lilgsmnHfV8MRSJmeCpG-17" value="Print Data &lt;br&gt;Stores" style="ellipse;whiteSpace=wrap;html=1;fontSize=20;" parent="1" vertex="1">
          <mxGeometry x="337.2" y="840" width="153.6" height="80" as="geometry" />
        </mxCell>
        <mxCell id="lilgsmnHfV8MRSJmeCpG-19" value="Get Data Users" style="ellipse;whiteSpace=wrap;html=1;fontSize=20;" parent="1" vertex="1">
          <mxGeometry x="337.2" y="380" width="153.6" height="80" as="geometry" />
        </mxCell>
        <mxCell id="lilgsmnHfV8MRSJmeCpG-20" value="Print Data &lt;br&gt;Users" style="ellipse;whiteSpace=wrap;html=1;fontSize=20;" parent="1" vertex="1">
          <mxGeometry x="337.2" y="960" width="153.6" height="80" as="geometry" />
        </mxCell>
        <mxCell id="lilgsmnHfV8MRSJmeCpG-21" value="Get Data Transactions" style="ellipse;whiteSpace=wrap;html=1;fontSize=20;" parent="1" vertex="1">
          <mxGeometry x="337" y="490" width="153.6" height="80" as="geometry" />
        </mxCell>
        <mxCell id="lilgsmnHfV8MRSJmeCpG-22" value="Get Data Stores" style="ellipse;whiteSpace=wrap;html=1;fontSize=20;" parent="1" vertex="1">
          <mxGeometry x="337" y="260" width="153.6" height="80" as="geometry" />
        </mxCell>
        <mxCell id="vSBK6vUm9z5rZ2sJiHHF-1" value="Print Data &lt;br&gt;Transactions" style="ellipse;whiteSpace=wrap;html=1;fontSize=20;" vertex="1" parent="1">
          <mxGeometry x="337.2" y="1080" width="153.6" height="80" as="geometry" />
        </mxCell>
      </root>
    </mxGraphModel>
  </diagram>
</mxfile>
